<svg xmlns="http://www.w3.org/2000/svg" viewBox="0 0 64 64" width="64" height="64">
  <defs>
    <linearGradient id="bb" x1="0" y1="0" x2="1" y2="1">
      <stop offset="0" stop-color="#6C4ED4"/>
      <stop offset="1" stop-color="#E040FB"/>
    </linearGradient>
  </defs>
  <rect width="64" height="64" rx="16" fill="url(#bb)"/>
  <g transform="translate(11.6 11.6) scale(1.7)" fill="#ffffff">
    <path d="M21 7.28V5c0-1.1-.9-2-2-2H5c-1.11 0-2 .89-2 2v14c0 1.1.89 2 2 2h14c1.1 0 2-.9 2-2v-2.28c.59-.35 1-.98 1-1.72V9c0-.74-.41-1.37-1-1.72zM20 9v6h-7V9h7zM5 19V5h14v2h-6c-1.1 0-2 .9-2 2v6c0 1.1.9 2 2 2h6v2H5z"/>
    <circle cx="16" cy="12" r="1.5"/>
  </g>
</svg>
